<?xml version="1.0" encoding="UTF-8" standalone="no"?>
<!-- Created with Inkscape (http://www.inkscape.org/) -->

<svg
 xmlns:dc="http://purl.org/dc/elements/1.1/"
 xmlns:cc="http://creativecommons.org/ns#"
 xmlns:rdf="http://www.w3.org/1999/02/22-rdf-syntax-ns#"
 xmlns:svg="http://www.w3.org/2000/svg"
 xmlns="http://www.w3.org/2000/svg"
 xmlns:sodipodi="http://sodipodi.sourceforge.net/DTD/sodipodi-0.dtd"
 xmlns:inkscape="http://www.inkscape.org/namespaces/inkscape"
 width="64px"
 height="64px"
 id="svg3026"
 version="1.1"
 inkscape:version="0.48.1 r9760"
 sodipodi:docname="New document 3">
<defs
 id="defs3028" />
<sodipodi:namedview
 id="base"
 pagecolor="#ffffff"
 bordercolor="#666666"
 borderopacity="1.0"
 inkscape:pageopacity="0.0"
 inkscape:pageshadow="2"
 inkscape:zoom="5.25634"
 inkscape:cx="56.7275"
 inkscape:cy="40.097"
 inkscape:current-layer="layer1"
 showgrid="true"
 inkscape:document-units="px"
 inkscape:grid-bbox="true"
 inkscape:window-width="1440"
 inkscape:window-height="849"
 inkscape:window-x="0"
 inkscape:window-y="24"
 inkscape:window-maximized="1" />
<metadata
 id="metadata3031">
<rdf:RDF>
<cc:Work
 rdf:about="">
<dc:format>image/svg+xml</dc:format>
<dc:type
 rdf:resource="http://purl.org/dc/dcmitype/StillImage" />
<dc:title></dc:title>
</cc:Work>
</rdf:RDF>
</metadata>
<g
 id="layer1"
 inkscape:label="Layer 1"
 inkscape:groupmode="layer">
<path
 style="fill:#000000;fill-opacity:1;fill-rule:nonzero;stroke:none"
 d="M 0.615335,14.3336 C 0.615335,14.3336 5.71386,16.8609 5.7721,19.8804 5.81093,21.9091 2.45707,23.8671 2.45707,23.8671 2.45707,23.8671 6.22597,24.0834 7.48381,25.7516 8.45512,27.042 8.7188,31.0821 8.7188,31.0821 8.7188,31.0821 14.8916,29.7488 17.5589,31.4939 19.9489,33.0623 22.8024,39.7489 22.8024,39.7489 22.8024,39.7489 26.1478,36.5727 27.7425,37.4955 30.6309,39.1679 31.9784,49.1743 31.9784,49.1743 31.9784,49.1743 33.3259,39.1679 36.2143,37.4955 37.809,36.5727 41.1543,39.7489 41.1543,39.7489 41.1543,39.7489 44.0079,33.0623 46.3978,31.4939 49.0651,29.7495 55.2378,31.0821 55.2378,31.0821 55.2378,31.0821 55.5013,27.042 56.4726,25.7516 57.7304,24.0834 61.4994,23.8671 61.4994,23.8671 61.4994,23.8671 58.1457,21.9091 58.1845,19.8804 58.2428,16.8602 63.3409,14.3336 63.3409,14.3336 63.3409,14.3336 57.8281,14.2518 55.2378,15.3736 49.4782,17.8669 45.2185,25.1602 39.4644,27.6805 37.9155,28.3586 34.611,28.3517 34.611,28.3517 L 35.7159,25.2101 C 35.7159,25.2101 33.842,27.4774 31.9785,27.4774 30.115,27.4774 28.2408,25.2101 28.2408,25.2101 L 29.3458,28.3517 C 29.3458,28.3517 26.0413,28.3579 24.4924,27.6805 18.7383,25.1595 14.4791,17.8669 8.7188,15.3736 6.12848,14.2518 0.615335,14.3336 0.615335,14.3336 z"
 id="path3031"
 inkscape:connector-curvature="0"
 sodipodi:nodetypes="cccccccccccccccccsccccccccc" />
</g>
</svg>
